<?xml version="1.0" encoding="utf-8"?>
<!-- Generator: Adobe Illustrator 16.0.4, SVG Export Plug-In . SVG Version: 6.00 Build 0)  -->
<!DOCTYPE svg PUBLIC "-//W3C//DTD SVG 1.1//EN" "http://www.w3.org/Graphics/SVG/1.1/DTD/svg11.dtd">
<svg version="1.1" xmlns="http://www.w3.org/2000/svg" xmlns:xlink="http://www.w3.org/1999/xlink" x="0px" y="0px" width="150px"
	 height="150px" viewBox="0 0 1000 1000" enable-background="new 0 0 1000 1000" xml:space="preserve">
<g id="Layer_2" display="none">
	
		<rect x="21.306" y="13.609" display="inline" fill="#7D72B4" stroke="#7D72B4" stroke-miterlimit="10" width="958.463" height="966.154"/>
</g>
<g id="Layer_1" display="none">
	<path display="inline" d="M-1166.262,547.665c0,10.641,7.488,14.385,17.734,15.961c1.773,0.197,2.562,1.38,2.365,2.956
		l-0.394,5.123c-0.197,1.379-1.183,2.365-2.759,2.365h-61.48c-1.576,0-2.562-0.986-2.758-2.365l-0.395-5.123
		c-0.197-1.576,0.591-2.759,2.365-2.956c10.247-1.576,17.932-5.32,17.932-15.961l-0.197-103.453h-10.444
		c-25.814,0-34.681,10.444-40.987,19.706c-0.985,1.576-2.167,2.364-3.941,2.364h-5.518c-1.576,0-2.365-1.379-1.971-2.759
		l10.444-32.71c0.591-1.576,1.577-2.562,3.35-2.562h4.926c1.379,0,2.365,0.788,3.547,1.97c1.182,1.183,2.759,1.773,5.912,1.773
		h110.743c3.941,0,5.912-0.985,7.291-2.167c1.182-0.985,2.364-1.576,3.744-1.576h5.321c1.576,0,2.562,1.379,1.97,2.956
		l-10.247,32.908c-0.591,1.379-1.576,2.167-2.956,2.167h-3.547c-1.576,0-2.758-0.985-3.153-2.167
		c-4.138-10.444-11.035-19.902-37.243-19.902h-9.853L-1166.262,547.665z"/>
	<path display="inline" d="M-934.135,547.665c0,10.641,5.517,14.385,15.764,15.961c1.773,0.197,2.562,1.38,2.364,2.956l-0.394,5.123
		c-0.197,1.379-1.182,2.365-2.759,2.365h-57.342c-1.577,0-2.562-0.986-2.759-2.365l-0.394-5.123
		c-0.197-1.576,0.591-2.759,2.364-2.956c10.247-1.576,15.764-5.32,15.764-15.961v-39.214h-85.126v39.214
		c0,10.641,5.518,14.385,15.764,15.961c1.773,0.197,2.562,1.38,2.365,2.956l-0.394,5.123c-0.197,1.379-1.182,2.365-2.759,2.365
		h-57.342c-1.576,0-2.562-0.986-2.758-2.365l-0.395-5.123c-0.197-1.576,0.591-2.759,2.365-2.956
		c10.247-1.576,15.961-5.32,15.961-15.961l-0.197-89.265c0-10.641-5.518-14.385-15.764-15.961c-1.773-0.197-2.562-1.379-2.365-2.956
		l0.395-5.124c0.197-1.379,1.182-2.365,2.758-2.365h55.569c1.577,0,2.562,0.985,2.759,2.365l0.394,5.124
		c0.197,1.576-0.591,2.759-2.365,2.956c-10.247,1.577-15.764,5.32-15.764,15.961v35.075h88.673V458.4
		c0-10.641-5.517-14.385-15.764-15.961c-1.773-0.197-2.562-1.379-2.364-2.956l0.394-5.124c0.197-1.379,1.182-2.365,2.759-2.365
		h55.568c1.577,0,2.562,0.985,2.759,2.365l0.394,5.124c0.197,1.576-0.591,2.759-2.364,2.956
		c-10.247,1.577-15.961,5.32-15.961,15.961L-934.135,547.665z"/>
	<path display="inline" d="M-856.104,547.665c0,10.641,7.488,14.385,17.734,15.961c1.773,0.197,2.562,1.38,2.365,2.956l-0.394,5.123
		c-0.197,1.379-1.183,2.365-2.759,2.365h-61.48c-1.576,0-2.562-0.986-2.758-2.365l-0.395-5.123
		c-0.197-1.576,0.591-2.759,2.365-2.956c10.247-1.576,17.932-5.32,17.932-15.961l-0.197-89.265c0-10.641-5.518-14.385-15.764-15.961
		c-1.773-0.197-2.562-1.379-2.365-2.956l0.394-5.124c0.197-1.379,1.379-2.365,2.956-2.365h59.904
		c30.346,0,54.584,14.582,54.584,41.381c0,14.385-9.656,25.813-26.012,30.543c10.838,14.778,29.361,45.321,59.904,62.268
		c1.379,0.789,1.773,2.168,1.182,3.744l-2.363,4.926c-0.789,1.577-2.562,1.971-4.139,1.38
		c-21.084-7.882-34.287-21.872-49.066-36.454c-19.508-19.509-32.12-27.193-51.627-26.996V547.665z M-858.075,498.008h12.611
		c17.932,0,34.485-7.291,34.485-25.617c0-18.523-12.021-29.755-30.15-29.755h-4.926c-6.896,0-12.02,4.335-12.02,10.641V498.008z"/>
	<path display="inline" d="M-695.705,547.665c0,10.641,6.107,14.385,16.355,15.961c1.773,0.197,2.561,1.38,2.363,2.956l-0.393,5.123
		c-0.197,1.379-1.184,2.365-2.76,2.365h-57.539c-1.576,0-2.561-0.986-2.758-2.365l-0.395-5.123
		c-0.197-1.576,0.592-2.759,2.365-2.956c10.246-1.576,16.551-5.32,16.551-15.961l-0.195-89.265c0-10.641-6.109-14.385-16.355-15.961
		c-1.773-0.197-2.562-1.379-2.365-2.956l0.395-5.124c0.197-1.379,1.182-2.365,2.758-2.365h57.539c1.576,0,2.562,0.985,2.76,2.365
		l0.393,5.124c0.197,1.576-0.59,2.759-2.363,2.956c-10.248,1.577-16.553,5.32-16.553,15.961L-695.705,547.665z"/>
	<path display="inline" d="M-591.662,536.827l26.996-80.397c2.363-7.685,2.168-12.414-8.08-13.991
		c-1.773-0.197-2.561-1.379-2.363-2.956l0.393-5.124c0.197-1.379,1.184-2.365,2.76-2.365h41.578c1.576,0,2.561,0.985,2.758,2.365
		l0.395,5.124c0.197,1.576-0.592,2.759-2.365,2.956c-10.246,1.577-16.945,6.503-20.492,15.961l-41.186,113.502
		c-0.393,1.182-1.576,2.168-2.955,2.168h-7.488c-1.379,0-2.561-0.986-2.955-2.168L-647.23,458.4
		c-3.547-9.458-8.869-14.385-19.115-15.961c-1.773-0.197-2.561-1.379-2.365-2.956l0.395-5.124c0.197-1.379,1.184-2.365,2.76-2.365
		h53.4c1.576,0,2.562,0.985,2.76,2.365l0.393,5.124c0.197,1.576-0.59,2.759-2.363,2.956c-10.248,1.577-10.445,6.503-7.883,13.991
		L-591.662,536.827z"/>
	<path display="inline" d="M-516.783,574.07c-1.576,0-2.562-0.986-2.76-2.365l-0.395-5.123c-0.195-1.576,0.592-2.759,2.365-2.956
		c10.246-1.576,15.961-5.32,15.961-15.961l-0.197-89.265c0-10.641-5.518-14.385-15.764-15.961c-1.773-0.197-2.561-1.379-2.365-2.956
		l0.395-5.124c0.197-1.379,1.184-2.365,2.76-2.365h72.711c24.238,0,36.652-0.591,36.652-0.591c1.576,0,2.561,0.985,2.758,2.365
		l0.395,3.744c0.197,1.379,0,2.759-0.984,4.138c-4.139,5.912-8.08,12.02-13.006,19.311c-0.789,1.182-1.971,2.167-3.547,2.167h-2.76
		c-1.576,0-2.561-0.985-3.35-2.167c-4.334-6.306-12.414-18.917-30.148-18.917h-7.094c-7.686,0-11.035,3.35-11.035,9.656v43.548
		h21.873c9.656,0,15.764-4.532,17.34-13.793c0.395-1.773,1.381-2.562,2.957-2.365l5.123,0.394c1.379,0.197,2.365,1.182,2.365,2.759
		v38.819c0,1.576-0.986,2.562-2.365,2.76l-5.123,0.394c-1.576,0.196-2.562-0.591-2.957-2.364
		c-1.576-9.262-7.684-13.598-17.34-13.598h-19.902v43.154c0,7.095,4.139,10.838,11.43,10.838h6.305
		c29.559,0,41.973-14.385,55.568-35.074c0.986-1.38,2.168-1.971,3.744-1.971h4.73c1.576,0,2.363,0.984,2.363,2.364v4.138
		c0,1.38-0.395,2.76-0.787,4.139c-3.744,10.838-7.686,25.025-11.232,36.455c-0.395,1.379-1.379,2.167-3.35,2.167
		c0,0-10.443-0.394-32.711-0.394H-516.783z"/>
	<path display="inline" d="M-1113.649,614.518c41.381,0,77.047,31.725,77.047,74.092c0,44.336-35.272,75.865-76.653,75.865
		s-75.865-31.529-75.865-73.895C-1189.12,646.834-1155.03,614.518-1113.649,614.518z M-1163.307,679.15
		c0,41.578,25.42,68.18,55.372,68.18c28.375,0,44.534-19.705,44.534-49.459c0-41.579-25.42-68.182-55.372-68.182
		C-1147.148,629.689-1163.307,649.396-1163.307,679.15z"/>
	<path display="inline" d="M-802.225,760.533c-1.576,0-2.561-0.986-2.758-2.365l-0.395-5.123c-0.197-1.576,0.592-2.76,2.365-2.955
		c10.246-1.578,15.961-5.32,15.961-15.963l-0.197-89.264c0-10.641-5.518-14.385-15.764-15.961c-1.773-0.197-2.562-1.38-2.365-2.956
		l0.395-5.124c0.197-1.379,1.182-2.364,2.758-2.364h52.219c40.396,0,82.764,30.149,82.959,81.974
		c0.197,42.957-31.922,60.102-71.529,60.102H-802.225z M-739.168,748.906c27.391,0,46.111-16.355,46.111-48.277
		c0-40.789-22.07-70.742-57.539-70.742c-7.094,0-11.232,4.927-11.232,10.641l0.197,97.344c0,5.912,4.336,11.035,11.232,11.035
		H-739.168z"/>
	<path display="inline" d="M-617.734,734.127c0,10.643,6.109,14.385,16.355,15.963c1.773,0.195,2.562,1.379,2.365,2.955
		l-0.395,5.123c-0.197,1.379-1.182,2.365-2.758,2.365h-57.539c-1.576,0-2.562-0.986-2.76-2.365l-0.395-5.123
		c-0.195-1.576,0.592-2.76,2.365-2.955c10.246-1.578,16.553-5.32,16.553-15.963l-0.197-89.264c0-10.641-6.109-14.385-16.355-15.961
		c-1.773-0.197-2.561-1.38-2.365-2.956l0.395-5.124c0.197-1.379,1.184-2.364,2.76-2.364h57.539c1.576,0,2.561,0.985,2.758,2.364
		l0.395,5.124c0.197,1.576-0.592,2.759-2.365,2.956c-10.246,1.576-16.553,5.32-16.553,15.961L-617.734,734.127z"/>
	<path display="inline" d="M-580.66,760.533c-1.576,0-2.561-0.986-2.758-2.365l-0.395-5.123c-0.197-1.576,0.592-2.76,2.365-2.955
		c10.246-1.578,15.961-5.32,15.961-15.963l-0.197-89.264c0-10.641-5.518-14.385-15.764-15.961c-1.773-0.197-2.562-1.38-2.365-2.956
		l0.395-5.124c0.197-1.379,1.182-2.364,2.758-2.364h72.713c24.238,0,36.652-0.591,36.652-0.591c1.576,0,2.561,0.985,2.758,2.365
		l0.395,3.743c0.197,1.38,0,2.759-0.986,4.138c-4.137,5.912-8.078,12.021-13.004,19.312c-0.789,1.183-1.971,2.167-3.547,2.167h-2.76
		c-1.576,0-2.561-0.984-3.35-2.167c-4.334-6.306-12.414-18.917-30.148-18.917h-7.094c-7.686,0-11.035,3.35-11.035,9.656v43.549
		h21.873c9.654,0,15.764-4.533,17.34-13.795c0.395-1.773,1.379-2.561,2.957-2.365l5.123,0.395c1.379,0.197,2.363,1.184,2.363,2.76
		v38.818c0,1.576-0.984,2.562-2.363,2.76l-5.123,0.393c-1.578,0.197-2.562-0.59-2.957-2.363c-1.576-9.262-7.686-13.598-17.34-13.598
		h-19.902v43.154c0,7.094,4.139,10.838,11.43,10.838h6.305c29.559,0,41.973-14.385,55.568-35.074
		c0.984-1.379,2.168-1.971,3.744-1.971h4.729c1.576,0,2.365,0.984,2.365,2.365v4.137c0,1.381-0.395,2.76-0.789,4.139
		c-3.742,10.838-7.684,25.025-11.23,36.455c-0.395,1.379-1.381,2.168-3.35,2.168c0,0-10.445-0.395-32.711-0.395H-580.66z"/>
	<path display="inline" d="M-983.771,732.815c0,10.641,7.488,14.385,17.734,15.961c1.773,0.197,2.562,1.38,2.365,2.956l-0.394,5.123
		c-0.197,1.379-1.183,2.365-2.759,2.365h-61.48c-1.576,0-2.562-0.986-2.758-2.365l-0.395-5.123
		c-0.197-1.576,0.591-2.759,2.365-2.956c10.247-1.576,17.932-5.32,17.932-15.961l-0.197-89.265c0-10.641-5.518-14.385-15.764-15.961
		c-1.773-0.197-2.562-1.38-2.365-2.956l0.394-5.124c0.197-1.379,1.379-2.364,2.956-2.364h59.904
		c30.346,0,54.584,14.582,54.584,41.382c0,14.385-9.656,25.812-26.012,30.543c10.838,14.778,29.361,45.321,59.904,62.268
		c1.379,0.789,1.773,2.168,1.182,3.744l-2.363,4.926c-0.789,1.577-2.562,1.971-4.139,1.38
		c-21.084-7.882-34.287-21.872-49.066-36.454c-19.508-19.509-32.12-27.193-51.627-26.996V732.815z M-985.741,683.158h12.611
		c17.932,0,34.485-7.291,34.485-25.617c0-18.522-12.021-29.754-30.15-29.754h-4.926c-6.896,0-12.02,4.334-12.02,10.641V683.158z"/>
	<g display="inline">
		<path d="M1674.719,199.803c0,10.641,7.488,14.385,17.734,15.961c1.773,0.197,2.562,1.379,2.365,2.956l-0.395,5.123
			c-0.197,1.379-1.182,2.365-2.758,2.365h-61.48c-1.576,0-2.562-0.985-2.759-2.365l-0.395-5.123
			c-0.196-1.577,0.591-2.759,2.364-2.956c10.247-1.576,17.932-5.32,17.932-15.961l-0.196-103.453h-10.444
			c-25.813,0-34.681,10.444-40.986,19.706c-0.985,1.576-2.168,2.364-3.941,2.364h-5.518c-1.576,0-2.364-1.379-1.971-2.759
			l10.444-32.71c0.591-1.576,1.577-2.562,3.351-2.562h4.926c1.379,0,2.365,0.788,3.547,1.97c1.182,1.183,2.759,1.773,5.912,1.773
			h110.742c3.941,0,5.912-0.985,7.291-2.167c1.183-0.985,2.365-1.576,3.744-1.576h5.32c1.576,0,2.562,1.379,1.971,2.956
			l-10.246,32.908c-0.592,1.379-1.577,2.167-2.956,2.167h-3.548c-1.576,0-2.758-0.985-3.152-2.167
			c-4.138-10.444-11.035-19.902-37.242-19.902h-9.854L1674.719,199.803z"/>
		<path d="M1907.062,199.803c0,10.641,5.518,14.385,15.765,15.961c1.773,0.197,2.562,1.379,2.364,2.956l-0.395,5.123
			c-0.196,1.379-1.182,2.365-2.758,2.365h-57.342c-1.577,0-2.562-0.985-2.76-2.365l-0.394-5.123
			c-0.197-1.577,0.591-2.759,2.364-2.956c10.247-1.576,15.764-5.32,15.764-15.961v-39.213h-85.126v39.213
			c0,10.641,5.518,14.385,15.765,15.961c1.773,0.197,2.562,1.379,2.364,2.956l-0.394,5.123c-0.197,1.379-1.183,2.365-2.76,2.365
			h-57.342c-1.576,0-2.562-0.985-2.758-2.365l-0.395-5.123c-0.197-1.577,0.591-2.759,2.364-2.956
			c10.247-1.576,15.962-5.32,15.962-15.961l-0.197-89.265c0-10.641-5.518-14.385-15.765-15.961
			c-1.773-0.197-2.562-1.379-2.364-2.956l0.395-5.124c0.196-1.379,1.182-2.365,2.758-2.365h55.568c1.577,0,2.562,0.985,2.76,2.365
			l0.394,5.124c0.197,1.576-0.591,2.759-2.364,2.956c-10.247,1.577-15.765,5.32-15.765,15.961v35.075h88.673v-35.075
			c0-10.641-5.517-14.385-15.764-15.961c-1.773-0.197-2.562-1.379-2.364-2.956l0.394-5.124c0.197-1.379,1.183-2.365,2.76-2.365
			h55.568c1.576,0,2.562,0.985,2.758,2.365l0.395,5.124c0.197,1.576-0.591,2.759-2.364,2.956
			c-10.247,1.577-15.962,5.32-15.962,15.961L1907.062,199.803z"/>
		<path d="M1982.809,199.803c0,10.641,7.487,14.385,17.734,15.961c1.773,0.197,2.562,1.379,2.364,2.956l-0.394,5.123
			c-0.197,1.379-1.184,2.365-2.76,2.365h-61.48c-1.576,0-2.561-0.985-2.758-2.365l-0.395-5.123
			c-0.197-1.577,0.592-2.759,2.365-2.956c10.246-1.576,17.932-5.32,17.932-15.961l-0.197-89.265
			c0-10.641-5.518-14.385-15.764-15.961c-1.773-0.197-2.562-1.379-2.365-2.956l0.395-5.124c0.197-1.379,1.379-2.365,2.955-2.365
			h59.904c30.346,0,54.583,14.582,54.583,41.381c0,14.385-9.655,25.813-26.011,30.543c10.838,14.779,29.361,45.322,59.904,62.269
			c1.379,0.788,1.773,2.167,1.182,3.744l-2.364,4.926c-0.788,1.577-2.562,1.971-4.138,1.379
			c-21.085-7.882-34.287-21.873-49.066-36.455c-19.508-19.508-32.119-27.193-51.627-26.996V199.803z M1980.838,150.146h12.611
			c17.932,0,34.483-7.291,34.483-25.617c0-18.523-12.021-29.755-30.149-29.755h-4.926c-6.896,0-12.02,4.335-12.02,10.641V150.146z"
			/>
		<path d="M2143.305,199.803c0,10.641,6.109,14.385,16.355,15.961c1.773,0.197,2.562,1.379,2.365,2.956l-0.395,5.123
			c-0.197,1.379-1.182,2.365-2.759,2.365h-57.539c-1.576,0-2.562-0.985-2.759-2.365l-0.395-5.123
			c-0.196-1.577,0.592-2.759,2.365-2.956c10.246-1.576,16.553-5.32,16.553-15.961l-0.197-89.265
			c0-10.641-6.109-14.385-16.355-15.961c-1.773-0.197-2.562-1.379-2.365-2.956l0.395-5.124c0.197-1.379,1.183-2.365,2.759-2.365
			h57.539c1.577,0,2.562,0.985,2.759,2.365l0.395,5.124c0.197,1.576-0.592,2.759-2.365,2.956
			c-10.246,1.577-16.552,5.32-16.552,15.961L2143.305,199.803z"/>
		<path d="M2246.914,188.965l26.996-80.397c2.365-7.685,2.168-12.414-8.079-13.991c-1.773-0.197-2.562-1.379-2.364-2.956
			l0.394-5.124c0.197-1.379,1.183-2.365,2.759-2.365h41.578c1.576,0,2.562,0.985,2.759,2.365l0.395,5.124
			c0.196,1.576-0.592,2.759-2.365,2.956c-10.246,1.577-16.946,6.503-20.493,15.961l-41.184,113.502
			c-0.395,1.182-1.577,2.167-2.956,2.167h-7.488c-1.379,0-2.562-0.985-2.955-2.167l-42.563-113.502
			c-3.547-9.458-8.867-14.385-19.114-15.961c-1.773-0.197-2.562-1.379-2.364-2.956l0.394-5.124c0.197-1.379,1.183-2.365,2.759-2.365
			h53.401c1.576,0,2.562,0.985,2.759,2.365l0.394,5.124c0.197,1.576-0.591,2.759-2.364,2.956
			c-10.247,1.577-10.443,6.503-7.882,13.991L2246.914,188.965z"/>
		<path d="M2322.108,226.208c-1.577,0-2.562-0.985-2.759-2.365l-0.395-5.123c-0.197-1.577,0.592-2.759,2.365-2.956
			c10.246-1.576,15.961-5.32,15.961-15.961l-0.197-89.265c0-10.641-5.518-14.385-15.764-15.961
			c-1.773-0.197-2.562-1.379-2.365-2.956l0.395-5.124c0.197-1.379,1.182-2.365,2.759-2.365h72.712
			c24.237,0,36.651-0.591,36.651-0.591c1.577,0,2.562,0.985,2.759,2.365l0.395,3.744c0.197,1.379,0,2.759-0.985,4.138
			c-4.139,5.912-8.079,12.02-13.006,19.311c-0.788,1.182-1.97,2.167-3.547,2.167h-2.759c-1.576,0-2.562-0.985-3.35-2.167
			c-4.335-6.306-12.414-18.917-30.148-18.917h-7.095c-7.685,0-11.034,3.35-11.034,9.656v43.548h21.872
			c9.656,0,15.765-4.532,17.341-13.793c0.395-1.773,1.38-2.562,2.956-2.365l5.123,0.394c1.38,0.197,2.365,1.182,2.365,2.759v38.819
			c0,1.576-0.985,2.562-2.365,2.759l-5.123,0.394c-1.576,0.197-2.562-0.591-2.956-2.365c-1.576-9.262-7.685-13.597-17.341-13.597
			h-19.902v43.154c0,7.094,4.139,10.838,11.43,10.838h6.306c29.558,0,41.972-14.385,55.568-35.075
			c0.985-1.379,2.168-1.971,3.744-1.971h4.729c1.576,0,2.364,0.985,2.364,2.365v4.138c0,1.379-0.394,2.759-0.788,4.138
			c-3.744,10.838-7.686,25.025-11.232,36.455c-0.394,1.379-1.379,2.167-3.35,2.167c0,0-10.443-0.394-32.711-0.394H2322.108z"/>
	</g>
	<g display="inline">
		<path d="M1940.373,316.655c41.381,0,77.047,31.726,77.047,74.091c0,44.338-35.271,75.865-76.652,75.865
			s-75.865-31.527-75.865-73.895C1864.902,348.971,1898.992,316.655,1940.373,316.655z M1890.716,381.287
			c0,41.578,25.42,68.182,55.372,68.182c28.375,0,44.533-19.705,44.533-49.461c0-41.578-25.42-68.18-55.371-68.18
			C1906.874,331.828,1890.716,351.533,1890.716,381.287z"/>
		<path d="M2069.658,436.266c0,10.641,7.488,14.385,17.734,15.961c1.773,0.197,2.562,1.379,2.365,2.955l-0.395,5.125
			c-0.197,1.379-1.183,2.363-2.759,2.363h-61.48c-1.576,0-2.562-0.984-2.759-2.363l-0.395-5.125
			c-0.196-1.576,0.592-2.758,2.365-2.955c10.246-1.576,17.932-5.32,17.932-15.961l-0.197-89.265
			c0-10.641-5.518-14.385-15.764-15.961c-1.773-0.197-2.562-1.379-2.365-2.956l0.395-5.124c0.197-1.379,1.379-2.365,2.956-2.365
			h59.903c30.346,0,54.584,14.582,54.584,41.381c0,14.384-9.656,25.814-26.012,30.542c10.838,14.779,29.361,45.322,59.904,62.27
			c1.379,0.787,1.773,2.166,1.183,3.744l-2.364,4.926c-0.789,1.576-2.562,1.971-4.139,1.379
			c-21.084-7.883-34.287-21.873-49.066-36.455c-19.508-19.508-32.119-27.193-51.627-26.996V436.266z M2067.688,386.607h12.611
			c17.932,0,34.484-7.289,34.484-25.616c0-18.523-12.021-29.755-30.149-29.755h-4.927c-6.896,0-12.02,4.335-12.02,10.641V386.607z"
			/>
	</g>
	<g display="inline">
		<path d="M1848.586,699.133c-1.576,0-2.562-0.986-2.758-2.365l-0.395-5.123c-0.197-1.576,0.591-2.76,2.364-2.955
			c10.247-1.578,15.962-5.32,15.962-15.963l-0.197-89.264c0-10.641-5.518-14.385-15.765-15.961
			c-1.773-0.197-2.562-1.379-2.364-2.957l0.395-5.123c0.196-1.379,1.182-2.363,2.758-2.363h52.219
			c40.396,0,82.762,30.148,82.959,81.973c0.197,42.957-31.922,60.102-71.529,60.102H1848.586z M1911.643,687.506
			c27.391,0,46.11-16.355,46.11-48.277c0-40.789-22.069-70.742-57.539-70.742c-7.094,0-11.231,4.928-11.231,10.641l0.196,97.344
			c0,5.912,4.335,11.035,11.231,11.035H1911.643z"/>
		<path d="M2034.07,672.727c0,10.643,6.109,14.385,16.355,15.963c1.773,0.195,2.562,1.379,2.365,2.955l-0.395,5.123
			c-0.197,1.379-1.182,2.365-2.759,2.365h-57.539c-1.576,0-2.562-0.986-2.759-2.365l-0.395-5.123
			c-0.196-1.576,0.592-2.76,2.365-2.955c10.246-1.578,16.553-5.32,16.553-15.963l-0.197-89.264c0-10.641-6.109-14.385-16.355-15.961
			c-1.773-0.197-2.562-1.379-2.365-2.957l0.395-5.123c0.197-1.379,1.183-2.363,2.759-2.363h57.539c1.577,0,2.562,0.984,2.759,2.363
			l0.395,5.123c0.197,1.578-0.592,2.76-2.365,2.957c-10.246,1.576-16.552,5.32-16.552,15.961L2034.07,672.727z"/>
		<path d="M2065.874,699.133c-1.576,0-2.562-0.986-2.759-2.365l-0.395-5.123c-0.196-1.576,0.592-2.76,2.365-2.955
			c10.246-1.578,15.961-5.32,15.961-15.963l-0.197-89.264c0-10.641-5.518-14.385-15.764-15.961
			c-1.773-0.197-2.562-1.379-2.365-2.957l0.395-5.123c0.197-1.379,1.183-2.363,2.759-2.363h72.712
			c24.238,0,36.652-0.592,36.652-0.592c1.576,0,2.562,0.984,2.759,2.365l0.394,3.744c0.197,1.379,0,2.758-0.984,4.137
			c-4.139,5.912-8.08,12.021-13.006,19.312c-0.789,1.182-1.971,2.166-3.547,2.166h-2.759c-1.577,0-2.562-0.984-3.351-2.166
			c-4.334-6.307-12.414-18.918-30.148-18.918h-7.094c-7.686,0-11.035,3.35-11.035,9.656v43.549h21.873
			c9.655,0,15.764-4.533,17.34-13.795c0.395-1.773,1.38-2.561,2.957-2.365l5.123,0.395c1.379,0.197,2.364,1.184,2.364,2.76v38.818
			c0,1.576-0.985,2.562-2.364,2.76l-5.123,0.393c-1.577,0.197-2.562-0.59-2.957-2.363c-1.576-9.262-7.685-13.598-17.34-13.598
			h-19.902v43.154c0,7.094,4.139,10.838,11.43,10.838h6.305c29.559,0,41.973-14.385,55.568-35.074
			c0.986-1.379,2.168-1.971,3.744-1.971h4.729c1.576,0,2.365,0.984,2.365,2.365v4.137c0,1.381-0.395,2.76-0.789,4.139
			c-3.743,10.838-7.685,25.025-11.231,36.455c-0.395,1.379-1.379,2.168-3.35,2.168c0,0-10.444-0.395-32.711-0.395H2065.874z"/>
	</g>
	<g display="inline">
		<path fill="#FFFFFF" stroke="#FFFFFF" stroke-miterlimit="10" d="M751.608,1153.982c0,10.641,7.487,14.385,17.734,15.961
			c1.773,0.197,2.562,1.379,2.364,2.955l-0.394,5.123c-0.197,1.38-1.183,2.365-2.759,2.365h-61.48c-1.576,0-2.562-0.985-2.758-2.365
			l-0.395-5.123c-0.197-1.576,0.591-2.758,2.364-2.955c10.247-1.576,17.932-5.32,17.932-15.961l-0.196-103.453h-10.444
			c-25.813,0-34.681,10.443-40.987,19.705c-0.984,1.576-2.167,2.365-3.94,2.365h-5.518c-1.577,0-2.364-1.38-1.971-2.76l10.444-32.71
			c0.591-1.576,1.576-2.562,3.35-2.562h4.926c1.38,0,2.365,0.788,3.547,1.971c1.183,1.182,2.76,1.773,5.912,1.773h110.743
			c3.94,0,5.911-0.985,7.291-2.168c1.183-0.985,2.364-1.576,3.743-1.576h5.321c1.576,0,2.562,1.379,1.97,2.955l-10.246,32.908
			c-0.592,1.379-1.576,2.168-2.955,2.168h-3.548c-1.576,0-2.759-0.985-3.153-2.168c-4.137-10.443-11.034-19.902-37.242-19.902
			h-9.853L751.608,1153.982z"/>
		<path fill="#FFFFFF" stroke="#FFFFFF" stroke-miterlimit="10" d="M983.951,1153.982c0,10.641,5.518,14.385,15.766,15.961
			c1.773,0.197,2.561,1.379,2.363,2.955l-0.395,5.123c-0.195,1.38-1.182,2.365-2.758,2.365h-57.342c-1.576,0-2.562-0.985-2.76-2.365
			l-0.393-5.123c-0.197-1.576,0.59-2.758,2.363-2.955c10.248-1.576,15.764-5.32,15.764-15.961v-39.214h-85.125v39.214
			c0,10.641,5.518,14.385,15.764,15.961c1.773,0.197,2.562,1.379,2.365,2.955l-0.395,5.123c-0.197,1.38-1.182,2.365-2.759,2.365
			h-57.343c-1.576,0-2.561-0.985-2.758-2.365l-0.395-5.123c-0.197-1.576,0.592-2.758,2.365-2.955
			c10.246-1.576,15.961-5.32,15.961-15.961l-0.197-89.266c0-10.641-5.518-14.385-15.764-15.961
			c-1.773-0.197-2.562-1.379-2.365-2.955l0.395-5.124c0.197-1.38,1.182-2.364,2.758-2.364h55.569c1.577,0,2.562,0.984,2.759,2.364
			l0.395,5.124c0.197,1.576-0.592,2.758-2.365,2.955c-10.246,1.576-15.764,5.32-15.764,15.961v35.076h88.672v-35.076
			c0-10.641-5.516-14.385-15.764-15.961c-1.773-0.197-2.561-1.379-2.363-2.955l0.393-5.124c0.197-1.38,1.184-2.364,2.76-2.364
			h55.568c1.576,0,2.562,0.984,2.758,2.364l0.395,5.124c0.197,1.576-0.59,2.758-2.363,2.955
			c-10.248,1.576-15.963,5.32-15.963,15.961L983.951,1153.982z"/>
		<path fill="#FFFFFF" stroke="#FFFFFF" stroke-miterlimit="10" d="M1059.697,1153.982c0,10.641,7.488,14.385,17.734,15.961
			c1.773,0.197,2.562,1.379,2.365,2.955l-0.395,5.123c-0.197,1.38-1.184,2.365-2.76,2.365h-61.48c-1.576,0-2.561-0.985-2.758-2.365
			l-0.395-5.123c-0.197-1.576,0.592-2.758,2.365-2.955c10.246-1.576,17.932-5.32,17.932-15.961l-0.197-89.266
			c0-10.641-5.518-14.385-15.764-15.961c-1.773-0.197-2.562-1.379-2.365-2.955l0.395-5.124c0.197-1.38,1.379-2.364,2.955-2.364
			h59.904c30.346,0,54.584,14.582,54.584,41.381c0,14.385-9.656,25.813-26.012,30.543c10.838,14.779,29.361,45.322,59.904,62.269
			c1.379,0.788,1.773,2.167,1.182,3.743l-2.363,4.927c-0.789,1.577-2.562,1.971-4.139,1.38
			c-21.084-7.883-34.287-21.873-49.066-36.455c-19.508-19.508-32.119-27.193-51.627-26.996V1153.982z M1057.727,1104.324h12.611
			c17.932,0,34.484-7.291,34.484-25.616c0-18.522-12.021-29.755-30.15-29.755h-4.926c-6.896,0-12.02,4.335-12.02,10.641V1104.324z"
			/>
		<path fill="#FFFFFF" stroke="#FFFFFF" stroke-miterlimit="10" d="M1220.193,1153.982c0,10.641,6.109,14.385,16.355,15.961
			c1.773,0.197,2.562,1.379,2.365,2.955l-0.395,5.123c-0.197,1.38-1.182,2.365-2.758,2.365h-57.539c-1.576,0-2.562-0.985-2.76-2.365
			l-0.395-5.123c-0.195-1.576,0.592-2.758,2.365-2.955c10.246-1.576,16.553-5.32,16.553-15.961l-0.197-89.266
			c0-10.641-6.109-14.385-16.355-15.961c-1.773-0.197-2.561-1.379-2.365-2.955l0.395-5.124c0.197-1.38,1.184-2.364,2.76-2.364
			h57.539c1.576,0,2.561,0.984,2.758,2.364l0.395,5.124c0.197,1.576-0.592,2.758-2.365,2.955
			c-10.246,1.576-16.551,5.32-16.551,15.961L1220.193,1153.982z"/>
		<path fill="#FFFFFF" stroke="#FFFFFF" stroke-miterlimit="10" d="M1323.803,1143.145l26.996-80.398
			c2.365-7.685,2.168-12.414-8.078-13.99c-1.773-0.197-2.562-1.379-2.365-2.955l0.395-5.124c0.197-1.38,1.182-2.364,2.758-2.364
			h41.578c1.576,0,2.562,0.984,2.76,2.364l0.395,5.124c0.195,1.576-0.592,2.758-2.365,2.955
			c-10.246,1.576-16.947,6.503-20.494,15.961l-41.184,113.502c-0.395,1.183-1.576,2.168-2.955,2.168h-7.488
			c-1.379,0-2.562-0.985-2.955-2.168l-42.564-113.502c-3.547-9.458-8.867-14.385-19.113-15.961
			c-1.773-0.197-2.562-1.379-2.365-2.955l0.395-5.124c0.197-1.38,1.182-2.364,2.758-2.364h53.402c1.576,0,2.561,0.984,2.758,2.364
			l0.395,5.124c0.197,1.576-0.592,2.758-2.365,2.955c-10.246,1.576-10.443,6.503-7.881,13.99L1323.803,1143.145z"/>
		<path fill="#FFFFFF" stroke="#FFFFFF" stroke-miterlimit="10" d="M1398.998,1180.387c-1.578,0-2.562-0.985-2.76-2.365
			l-0.395-5.123c-0.197-1.576,0.592-2.758,2.365-2.955c10.246-1.576,15.961-5.32,15.961-15.961l-0.197-89.266
			c0-10.641-5.518-14.385-15.764-15.961c-1.773-0.197-2.562-1.379-2.365-2.955l0.395-5.124c0.197-1.38,1.182-2.364,2.76-2.364
			h72.711c24.238,0,36.652-0.592,36.652-0.592c1.576,0,2.561,0.986,2.758,2.365l0.395,3.744c0.197,1.379,0,2.758-0.984,4.138
			c-4.139,5.911-8.08,12.021-13.006,19.312c-0.789,1.182-1.971,2.167-3.547,2.167h-2.76c-1.576,0-2.561-0.985-3.35-2.167
			c-4.334-6.307-12.414-18.918-30.148-18.918h-7.094c-7.686,0-11.035,3.351-11.035,9.656v43.549h21.873
			c9.656,0,15.764-4.533,17.34-13.794c0.395-1.773,1.381-2.562,2.957-2.364l5.123,0.394c1.379,0.197,2.365,1.183,2.365,2.759v38.819
			c0,1.576-0.986,2.562-2.365,2.759l-5.123,0.395c-1.576,0.196-2.562-0.592-2.957-2.365c-1.576-9.262-7.684-13.597-17.34-13.597
			h-19.902v43.154c0,7.095,4.139,10.838,11.43,10.838h6.305c29.559,0,41.973-14.385,55.568-35.075
			c0.986-1.379,2.168-1.971,3.744-1.971h4.73c1.576,0,2.363,0.985,2.363,2.365v4.138c0,1.38-0.393,2.759-0.787,4.138
			c-3.744,10.838-7.686,25.025-11.232,36.455c-0.395,1.379-1.379,2.168-3.35,2.168c0,0-10.443-0.395-32.711-0.395H1398.998z"/>
	</g>
	<g display="inline">
		<path fill="#FFFFFF" stroke="#FFFFFF" stroke-miterlimit="10" d="M889.852,1195.296c41.381,0,77.047,31.727,77.047,74.092
			c0,44.339-35.271,75.866-76.652,75.866s-75.865-31.527-75.865-73.896C814.381,1227.612,848.471,1195.296,889.852,1195.296z
			 M840.195,1259.929c0,41.579,25.42,68.183,55.371,68.183c28.375,0,44.533-19.705,44.533-49.462c0-41.578-25.42-68.18-55.371-68.18
			C856.354,1210.47,840.195,1230.175,840.195,1259.929z"/>
		<path fill="#FFFFFF" stroke="#FFFFFF" stroke-miterlimit="10" d="M1019.137,1314.908c0,10.641,7.488,14.385,17.734,15.961
			c1.773,0.197,2.562,1.379,2.365,2.955l-0.395,5.125c-0.197,1.379-1.182,2.363-2.758,2.363h-61.48c-1.576,0-2.562-0.984-2.76-2.363
			l-0.395-5.125c-0.195-1.576,0.592-2.758,2.365-2.955c10.246-1.576,17.932-5.32,17.932-15.961l-0.197-89.266
			c0-10.642-5.518-14.385-15.764-15.962c-1.773-0.196-2.561-1.379-2.365-2.955l0.395-5.123c0.197-1.38,1.379-2.365,2.957-2.365
			h59.902c30.346,0,54.584,14.582,54.584,41.381c0,14.385-9.656,25.814-26.012,30.543c10.838,14.779,29.361,45.323,59.904,62.271
			c1.379,0.787,1.773,2.166,1.184,3.744l-2.365,4.926c-0.789,1.576-2.562,1.971-4.139,1.379
			c-21.084-7.883-34.287-21.873-49.066-36.455c-19.508-19.509-32.119-27.194-51.627-26.997V1314.908z M1017.166,1265.249h12.611
			c17.932,0,34.484-7.289,34.484-25.615c0-18.523-12.02-29.756-30.148-29.756h-4.928c-6.896,0-12.02,4.336-12.02,10.641V1265.249z"
			/>
	</g>
	<g display="inline">
		<path fill="#FFFFFF" stroke="#FFFFFF" stroke-miterlimit="10" d="M974.603,1518.906c-1.576,0-2.562-0.986-2.758-2.365
			l-0.395-5.123c-0.197-1.576,0.591-2.76,2.364-2.955c10.247-1.578,15.962-5.32,15.962-15.963l-0.197-89.264
			c0-10.641-5.518-14.385-15.765-15.961c-1.773-0.197-2.562-1.379-2.364-2.957l0.395-5.123c0.196-1.379,1.182-2.363,2.758-2.363
			h52.219c40.396,0,82.761,30.148,82.958,81.973c0.197,42.957-31.922,60.102-71.528,60.102H974.603z M1037.659,1507.279
			c27.39,0,46.11-16.355,46.11-48.277c0-40.789-22.07-70.742-57.539-70.742c-7.094,0-11.231,4.928-11.231,10.641l0.196,97.344
			c0,5.912,4.335,11.035,11.231,11.035H1037.659z"/>
		<path fill="#FFFFFF" stroke="#FFFFFF" stroke-miterlimit="10" d="M1160.086,1492.5c0,10.643,6.109,14.385,16.355,15.963
			c1.773,0.195,2.562,1.379,2.365,2.955l-0.395,5.123c-0.197,1.379-1.182,2.365-2.758,2.365h-57.539
			c-1.576,0-2.562-0.986-2.76-2.365l-0.395-5.123c-0.195-1.576,0.592-2.76,2.365-2.955c10.246-1.578,16.553-5.32,16.553-15.963
			l-0.197-89.264c0-10.641-6.109-14.385-16.355-15.961c-1.773-0.197-2.561-1.379-2.365-2.957l0.395-5.123
			c0.197-1.379,1.184-2.363,2.76-2.363h57.539c1.576,0,2.561,0.984,2.758,2.363l0.395,5.123c0.197,1.578-0.592,2.76-2.365,2.957
			c-10.246,1.576-16.551,5.32-16.551,15.961L1160.086,1492.5z"/>
		<path fill="#FFFFFF" stroke="#FFFFFF" stroke-miterlimit="10" d="M1191.891,1518.906c-1.576,0-2.562-0.986-2.76-2.365
			l-0.395-5.123c-0.195-1.576,0.592-2.76,2.365-2.955c10.246-1.578,15.961-5.32,15.961-15.963l-0.197-89.264
			c0-10.641-5.518-14.385-15.764-15.961c-1.773-0.197-2.561-1.379-2.365-2.957l0.395-5.123c0.197-1.379,1.184-2.363,2.76-2.363
			h72.711c24.238,0,36.652-0.592,36.652-0.592c1.576,0,2.562,0.984,2.76,2.365l0.393,3.744c0.197,1.379,0,2.758-0.984,4.137
			c-4.139,5.912-8.08,12.021-13.006,19.312c-0.789,1.182-1.971,2.166-3.547,2.166h-2.758c-1.578,0-2.562-0.984-3.352-2.166
			c-4.334-6.307-12.414-18.918-30.148-18.918h-7.094c-7.686,0-11.035,3.35-11.035,9.656v43.549h21.873
			c9.656,0,15.764-4.533,17.34-13.795c0.395-1.773,1.381-2.561,2.957-2.365l5.123,0.395c1.379,0.197,2.365,1.184,2.365,2.76v38.818
			c0,1.576-0.986,2.562-2.365,2.76l-5.123,0.393c-1.576,0.197-2.562-0.59-2.957-2.363c-1.576-9.262-7.684-13.598-17.34-13.598
			h-19.902v43.154c0,7.094,4.139,10.838,11.43,10.838h6.305c29.559,0,41.973-14.385,55.568-35.074
			c0.986-1.379,2.168-1.971,3.744-1.971h4.73c1.576,0,2.365,0.984,2.365,2.365v4.137c0,1.381-0.395,2.76-0.789,4.139
			c-3.744,10.838-7.686,25.025-11.232,36.455c-0.395,1.379-1.379,2.168-3.35,2.168c0,0-10.443-0.395-32.711-0.395H1191.891z"/>
	</g>
	<path display="inline" d="M288.813,815.401c0,6.003,4.224,8.115,10.005,9.004c1,0.111,1.445,0.778,1.334,1.668l-0.222,2.891
		c-0.111,0.777-0.667,1.334-1.557,1.334h-34.685c-0.889,0-1.445-0.557-1.556-1.334l-0.223-2.891
		c-0.111-0.89,0.333-1.557,1.334-1.668c5.781-0.889,10.116-3.001,10.116-9.004l-0.111-58.364h-5.892
		c-14.563,0-19.566,5.892-23.123,11.117c-0.556,0.889-1.223,1.334-2.224,1.334h-3.113c-0.889,0-1.334-0.779-1.112-1.557
		l5.892-18.454c0.333-0.89,0.89-1.445,1.89-1.445h2.779c0.778,0,1.334,0.444,2.001,1.111s1.556,1.001,3.335,1.001h62.477
		c2.224,0,3.335-0.557,4.113-1.223c0.667-0.557,1.334-0.89,2.112-0.89h3.001c0.89,0,1.445,0.778,1.112,1.667l-5.781,18.566
		c-0.333,0.777-0.889,1.223-1.667,1.223h-2.001c-0.889,0-1.556-0.557-1.778-1.223c-2.334-5.893-6.226-11.229-21.011-11.229h-5.558
		L288.813,815.401z"/>
	<path display="inline" d="M419.771,815.401c0,6.003,3.112,8.115,8.894,9.004c1.001,0.111,1.445,0.778,1.334,1.668l-0.223,2.891
		c-0.11,0.777-0.667,1.334-1.556,1.334h-32.351c-0.89,0-1.445-0.557-1.556-1.334l-0.223-2.891c-0.111-0.89,0.333-1.557,1.334-1.668
		c5.781-0.889,8.894-3.001,8.894-9.004v-22.123h-48.025v22.123c0,6.003,3.113,8.115,8.894,9.004c1,0.111,1.446,0.778,1.334,1.668
		l-0.223,2.891c-0.111,0.777-0.667,1.334-1.556,1.334h-32.351c-0.889,0-1.445-0.557-1.556-1.334l-0.223-2.891
		c-0.111-0.89,0.334-1.557,1.334-1.668c5.781-0.889,9.005-3.001,9.005-9.004l-0.111-50.36c0-6.003-3.113-8.115-8.894-9.004
		c-1-0.111-1.445-0.779-1.334-1.668l0.223-2.891c0.111-0.778,0.667-1.334,1.556-1.334h31.35c0.889,0,1.445,0.556,1.556,1.334
		l0.223,2.891c0.111,0.889-0.334,1.557-1.334,1.668c-5.781,0.889-8.894,3.001-8.894,9.004v19.788h50.026v-19.788
		c0-6.003-3.112-8.115-8.894-9.004c-1-0.111-1.445-0.779-1.334-1.668l0.223-2.891c0.111-0.778,0.667-1.334,1.556-1.334h31.35
		c0.889,0,1.445,0.556,1.556,1.334l0.223,2.891c0.111,0.889-0.333,1.557-1.334,1.668c-5.781,0.889-9.005,3.001-9.005,9.004
		L419.771,815.401z"/>
	<path display="inline" d="M463.793,815.401c0,6.003,4.225,8.115,10.005,9.004c1.001,0.111,1.445,0.778,1.334,1.668l-0.222,2.891
		c-0.111,0.777-0.668,1.334-1.557,1.334h-34.686c-0.889,0-1.444-0.557-1.556-1.334l-0.223-2.891
		c-0.111-0.89,0.334-1.557,1.334-1.668c5.781-0.889,10.116-3.001,10.116-9.004l-0.11-50.36c0-6.003-3.113-8.115-8.894-9.004
		c-1.001-0.111-1.445-0.779-1.335-1.668l0.223-2.891c0.111-0.778,0.778-1.334,1.668-1.334h33.795
		c17.12,0,30.795,8.227,30.795,23.346c0,8.115-5.448,14.562-14.675,17.231c6.114,8.337,16.564,25.568,33.796,35.129
		c0.777,0.445,1,1.224,0.666,2.112l-1.333,2.779c-0.445,0.89-1.445,1.111-2.335,0.778c-11.895-4.446-19.344-12.34-27.682-20.566
		c-11.006-11.006-18.12-15.341-29.126-15.229V815.401z M462.681,787.387h7.115c10.116,0,19.455-4.114,19.455-14.453
		c0-10.449-6.781-16.786-17.01-16.786h-2.779c-3.891,0-6.781,2.445-6.781,6.003V787.387z"/>
	<path display="inline" d="M554.284,815.401c0,6.003,3.445,8.115,9.227,9.004c1.001,0.111,1.445,0.778,1.334,1.668l-0.222,2.891
		c-0.111,0.777-0.668,1.334-1.557,1.334h-32.462c-0.889,0-1.444-0.557-1.556-1.334l-0.223-2.891
		c-0.111-0.89,0.334-1.557,1.334-1.668c5.781-0.889,9.338-3.001,9.338-9.004l-0.11-50.36c0-6.003-3.446-8.115-9.228-9.004
		c-1-0.111-1.445-0.779-1.334-1.668l0.223-2.891c0.111-0.778,0.667-1.334,1.556-1.334h32.462c0.889,0,1.445,0.556,1.557,1.334
		l0.222,2.891c0.111,0.889-0.333,1.557-1.334,1.668c-5.781,0.889-9.338,3.001-9.338,9.004L554.284,815.401z"/>
	<path display="inline" d="M612.981,809.287l15.23-45.357c1.333-4.336,1.223-7.004-4.559-7.893
		c-1.001-0.111-1.445-0.779-1.334-1.668l0.222-2.891c0.111-0.778,0.668-1.334,1.557-1.334h23.457c0.89,0,1.444,0.556,1.556,1.334
		l0.223,2.891c0.111,0.889-0.334,1.557-1.334,1.668c-5.78,0.889-9.56,3.668-11.561,9.004l-23.236,64.033
		c-0.221,0.667-0.889,1.224-1.667,1.224h-4.225c-0.777,0-1.444-0.557-1.667-1.224l-24.012-64.033
		c-2.001-5.336-5.004-8.115-10.784-9.004c-1.001-0.111-1.444-0.779-1.335-1.668l0.223-2.891c0.111-0.778,0.668-1.334,1.558-1.334
		h30.126c0.89,0,1.446,0.556,1.558,1.334l0.221,2.891c0.111,0.889-0.332,1.557-1.333,1.668c-5.781,0.889-5.893,3.668-4.447,7.893
		L612.981,809.287z"/>
	<path display="inline" d="M655.226,830.298c-0.89,0-1.446-0.557-1.558-1.334l-0.223-2.891c-0.11-0.89,0.334-1.557,1.335-1.668
		c5.78-0.889,9.004-3.001,9.004-9.004l-0.111-50.36c0-6.003-3.112-8.115-8.893-9.004c-1.001-0.111-1.445-0.779-1.335-1.668
		l0.223-2.891c0.111-0.778,0.668-1.334,1.558-1.334h41.021c13.674,0,20.678-0.334,20.678-0.334c0.89,0,1.444,0.557,1.556,1.335
		l0.223,2.111c0.111,0.778,0,1.557-0.556,2.335c-2.335,3.335-4.558,6.781-7.337,10.895c-0.445,0.667-1.112,1.223-2.001,1.223h-1.558
		c-0.889,0-1.444-0.556-1.89-1.223c-2.444-3.558-7.003-10.672-17.008-10.672h-4.003c-4.335,0-6.225,1.89-6.225,5.447v24.568h12.34
		c5.447,0,8.893-2.558,9.782-7.782c0.223-1.001,0.779-1.445,1.668-1.334l2.891,0.222c0.777,0.111,1.334,0.668,1.334,1.558v21.899
		c0,0.89-0.557,1.446-1.334,1.557l-2.891,0.223c-0.889,0.11-1.445-0.333-1.668-1.334c-0.89-5.225-4.335-7.671-9.782-7.671h-11.229
		v24.346c0,4.003,2.335,6.114,6.448,6.114h3.557c16.676,0,23.68-8.115,31.35-19.787c0.557-0.779,1.224-1.112,2.112-1.112h2.669
		c0.89,0,1.333,0.556,1.333,1.334v2.334c0,0.778-0.223,1.558-0.443,2.335c-2.113,6.114-4.336,14.119-6.338,20.566
		c-0.222,0.778-0.777,1.223-1.89,1.223c0,0-5.892-0.222-18.454-0.222H655.226z"/>
	<path display="inline" d="M318.496,853.117c23.345,0,43.467,17.897,43.467,41.799c0,25.014-19.899,42.801-43.245,42.801
		s-42.8-17.787-42.8-41.688C275.917,871.349,295.15,853.117,318.496,853.117z M290.48,889.58c0,23.457,14.341,38.465,31.239,38.465
		c16.008,0,25.125-11.117,25.125-27.903c0-23.457-14.341-38.466-31.239-38.466C299.597,861.676,290.48,872.793,290.48,889.58z"/>
	<path display="inline" d="M494.189,935.493c-0.889,0-1.444-0.557-1.556-1.334l-0.223-2.891c-0.111-0.89,0.334-1.557,1.334-1.667
		c5.781-0.891,9.005-3.002,9.005-9.006l-0.111-50.359c0-6.003-3.112-8.115-8.894-9.004c-1-0.111-1.445-0.779-1.334-1.668
		l0.223-2.891c0.111-0.778,0.667-1.334,1.556-1.334h29.46c22.79,0,46.692,17.009,46.803,46.246
		c0.111,24.235-18.01,33.907-40.354,33.907H494.189z M529.764,928.934c15.453,0,26.015-9.227,26.015-27.236
		c0-23.012-12.451-39.91-32.462-39.91c-4.002,0-6.337,2.779-6.337,6.003l0.111,54.918c0,3.336,2.446,6.226,6.337,6.226H529.764z"/>
	<path display="inline" d="M598.272,920.596c0,6.004,3.446,8.115,9.227,9.006c1.001,0.11,1.446,0.777,1.335,1.667l-0.223,2.891
		c-0.111,0.777-0.667,1.334-1.556,1.334h-32.462c-0.889,0-1.445-0.557-1.557-1.334l-0.223-2.891c-0.11-0.89,0.334-1.557,1.334-1.667
		c5.78-0.891,9.339-3.002,9.339-9.006l-0.111-50.359c0-6.003-3.447-8.115-9.228-9.004c-1-0.111-1.444-0.779-1.334-1.668l0.223-2.891
		c0.111-0.778,0.668-1.334,1.557-1.334h32.462c0.889,0,1.444,0.556,1.556,1.334l0.223,2.891c0.111,0.889-0.334,1.557-1.335,1.668
		c-5.78,0.889-9.338,3.001-9.338,9.004L598.272,920.596z"/>
	<path display="inline" d="M619.188,935.493c-0.89,0-1.445-0.557-1.557-1.334l-0.223-2.891c-0.111-0.89,0.334-1.557,1.335-1.667
		c5.78-0.891,9.005-3.002,9.005-9.006l-0.111-50.359c0-6.003-3.113-8.115-8.894-9.004c-1.001-0.111-1.446-0.779-1.335-1.668
		l0.223-2.891c0.111-0.778,0.667-1.334,1.557-1.334h41.021c13.675,0,20.678-0.334,20.678-0.334c0.89,0,1.444,0.557,1.556,1.335
		l0.223,2.111c0.111,0.778,0,1.557-0.556,2.335c-2.334,3.335-4.558,6.781-7.337,10.895c-0.445,0.667-1.111,1.223-2.001,1.223h-1.557
		c-0.89,0-1.445-0.556-1.89-1.223c-2.445-3.558-7.004-10.672-17.009-10.672h-4.002c-4.336,0-6.226,1.89-6.226,5.447v24.568h12.34
		c5.446,0,8.894-2.557,9.782-7.782c0.223-1.001,0.778-1.444,1.668-1.334l2.891,0.222c0.778,0.111,1.333,0.668,1.333,1.558v21.899
		c0,0.89-0.555,1.446-1.333,1.558l-2.891,0.221c-0.89,0.111-1.445-0.332-1.668-1.333c-0.889-5.225-4.336-7.671-9.782-7.671h-11.229
		v24.346c0,4.002,2.335,6.114,6.448,6.114h3.557c16.676,0,23.68-8.115,31.35-19.787c0.556-0.778,1.224-1.112,2.112-1.112h2.668
		c0.89,0,1.335,0.556,1.335,1.335v2.333c0,0.779-0.223,1.558-0.445,2.335c-2.111,6.114-4.335,14.119-6.336,20.567
		c-0.223,0.777-0.779,1.223-1.89,1.223c0,0-5.894-0.223-18.454-0.223H619.188z"/>
	<path display="inline" d="M391.768,919.855c0,6.004,4.225,8.116,10.005,9.005c1,0.111,1.445,0.778,1.334,1.668l-0.222,2.89
		c-0.111,0.778-0.667,1.335-1.557,1.335h-34.685c-0.889,0-1.445-0.557-1.556-1.335l-0.222-2.89c-0.111-0.89,0.333-1.557,1.334-1.668
		c5.781-0.889,10.116-3.001,10.116-9.005l-0.111-50.359c0-6.003-3.113-8.115-8.894-9.005c-1-0.111-1.445-0.778-1.334-1.667
		l0.223-2.891c0.111-0.778,0.778-1.334,1.667-1.334h33.795c17.12,0,30.794,8.227,30.794,23.346c0,8.115-5.447,14.562-14.674,17.231
		c6.114,8.337,16.564,25.568,33.795,35.129c0.778,0.445,1.001,1.223,0.667,2.112l-1.333,2.779c-0.445,0.89-1.446,1.111-2.335,0.778
		c-11.896-4.447-19.344-12.34-27.682-20.566c-11.006-11.006-18.121-15.342-29.126-15.23V919.855z M390.656,891.841h7.115
		c10.116,0,19.455-4.113,19.455-14.452c0-10.449-6.782-16.786-17.01-16.786h-2.779c-3.891,0-6.781,2.445-6.781,6.003V891.841z"/>
</g>
<g id="Layer_3" display="none">
	<text transform="matrix(1 0 0 1 -20.228 789.166)" display="inline"><tspan x="0" y="0" font-family="'Druk-SuperItalic'" font-size="745.3384">T</tspan><tspan x="290.682" y="0" font-family="'Druk-SuperItalic'" font-size="745.3384" letter-spacing="-25">OD</tspan></text>
</g>
<g id="Layer_5">
</g>
<g id="Layer_3_copy">
	<path fill="#E0CCD1" d="M679.11,234.628c-13.808,0-26.753,11.055-28.916,24.691l-12.993,81.924
		c-2.163,13.637-3.501,13.457-4.994-0.269c-7.74-71.15-55.916-114.545-144.149-114.545h-23.851
		c-67.604,0-108.889,24.641-134.842,68.422c-7.041,11.877-9.527,11.243-7.393-2.398l5.181-33.125
		c2.134-13.641-7.329-24.7-21.136-24.7H80.983c-13.807,0-26.79,11.049-28.998,24.678l-13.619,84.061
		c-2.208,13.629,7.195,24.678,21.002,24.678h15.59c13.807,0,23.258,11.057,21.11,24.695l-58.556,371.73
		c-2.148,13.639,7.303,24.695,21.11,24.695h93.852c13.807,0,26.742-11.057,28.89-24.695l58.555-371.73
		c2.148-13.639,15.083-24.695,28.89-24.695h8.128c13.807,0,23.363,6.957,21.664,15.604c-1.007,5.127-1.954,10.361-2.844,15.7
		l-35.777,227.33c-17.143,111.057,35.777,170.686,142.361,170.686h24.596c73.976,0,123.301-35.407,149.719-101.695
		c5.111-12.826,6.327-12.593,4.164,1.044l-10.747,67.761c-2.163,13.637,7.276,24.691,21.084,24.691h199.35
		c61.863,0,105.839-38.758,120.746-134.908L956.721,367.3c14.162-93.168-35.031-132.672-102.112-132.672H679.11z M482.84,381.461
		l-41.739,263.107c-2.236,14.162-8.199,20.869-19.379,20.869c-12.671,0-17.143-7.453-14.907-21.615l41.739-262.361
		c2.981-17.143,6.708-25.342,19.379-25.342S485.076,364.318,482.84,381.461z M765.167,640.096
		c-2.981,20.125-7.453,27.578-21.615,27.578c0,0-3.17,0-7.081,0c-3.91,0-5.325-11.055-3.16-24.69l42.098-265.154
		c2.165-13.637,6.924-24.691,10.629-24.691h6.708c14.161,0,16.397,10.435,14.161,26.087L765.167,640.096z"/>
</g>
</svg>
